<svg xmlns="http://www.w3.org/2000/svg" xmlns:xlink="http://www.w3.org/1999/xlink" width="450" zoomAndPan="magnify" viewBox="0 0 337.5 104.999996" height="140" preserveAspectRatio="xMidYMid meet" version="1.0"><defs><clipPath id="e968eac694"><path d="M 0 0.078125 L 137 0.078125 L 137 104.921875 L 0 104.921875 Z M 0 0.078125 " clip-rule="nonzero"/></clipPath><clipPath id="7a5e272288"><path d="M 169 0.078125 L 337 0.078125 L 337 104.921875 L 169 104.921875 Z M 169 0.078125 " clip-rule="nonzero"/></clipPath><clipPath id="3799bd78b4"><path d="M 117 2.191406 L 185.886719 2.191406 L 185.886719 95.054688 L 117 95.054688 Z M 117 2.191406 " clip-rule="nonzero"/></clipPath></defs><g clip-path="url(#e968eac694)"><path stroke-linecap="butt" transform="matrix(0.748891, 0, 0, 0.748891, -0.000000000000021285, -16.029779)" fill="none" stroke-linejoin="miter" d="M 40.539137 48.59597 L 8.350895 48.59597 C 7.714537 48.59597 7.109476 49.232328 7.109476 49.717421 L 7.109476 66.85736 L 40.539137 66.85736 C 42.782039 66.85736 55.191021 67.493718 55.191021 78.41091 C 55.191021 89.364614 43.027193 89.604552 40.539137 89.604552 L 7.109476 89.604552 L 7.109476 146.876777 C 7.109476 147.393166 7.714537 147.998227 8.350895 147.998227 L 24.489353 147.998227 C 25.370865 147.998227 25.735989 147.393166 25.735989 146.876777 L 25.735989 107.991127 L 40.539137 107.991127 C 42.902008 107.991127 74.088769 107.626003 74.088769 78.41091 C 74.088769 49.232328 44.513767 48.59597 40.539137 48.59597 Z M 155.453926 146.511653 L 117.689727 49.352297 C 117.324604 48.350816 115.566795 48.350816 115.201671 49.352297 L 77.557442 146.511653 C 77.192318 147.2419 77.677411 147.998227 78.798861 147.998227 L 95.818831 147.998227 C 96.33522 147.998227 96.940282 147.758289 97.060251 147.2419 L 116.443091 91.852669 L 136.071086 147.2419 C 136.191055 147.758289 136.827413 147.998227 137.192537 147.998227 L 154.332476 147.998227 C 155.213988 147.998227 155.850346 147.2419 155.453926 146.511653 Z M 155.453926 146.511653 " stroke="#ffffff" stroke-width="4.659675" stroke-opacity="1" stroke-miterlimit="4"/></g><g clip-path="url(#7a5e272288)"><path stroke-linecap="butt" transform="matrix(0.748891, 0, 0, 0.748891, -0.000000000000021285, -16.029779)" fill="none" stroke-linejoin="miter" d="M 309.426494 129.736838 C 297.382636 130.22193 271.782264 128.98051 271.782264 98.310139 C 271.782264 74.681434 287.800753 65.610724 309.426494 66.732175 L 309.426494 88.728256 L 328.444211 88.728256 L 328.444211 49.717421 C 328.444211 49.232328 327.933038 48.59597 327.051526 48.59597 L 310.913069 48.59597 C 286.554117 48.59597 252.639362 54.203223 252.639362 98.310139 C 252.639362 140.779215 286.188993 147.998227 310.913069 147.998227 L 327.051526 147.998227 C 327.933038 147.998227 328.444211 147.393166 328.444211 146.876777 L 328.444211 129.736838 Z M 382.367732 91.727484 L 382.367732 49.717421 C 382.367732 49.232328 381.851343 48.59597 381.001127 48.59597 L 364.711404 48.59597 C 363.955077 48.59597 363.344799 49.232328 363.344799 49.717421 L 363.344799 91.727484 Z M 437.636994 48.59597 L 421.378567 48.59597 C 420.617024 48.59597 420.011962 49.232328 420.011962 49.717421 L 420.011962 110.83909 L 382.367732 110.83909 L 382.367732 110.719121 L 363.344799 110.719121 L 363.344799 146.876777 C 363.344799 147.393166 363.955077 147.998227 364.711404 147.998227 L 381.001127 147.998227 C 381.851343 147.998227 382.367732 147.393166 382.367732 146.876777 L 382.367732 129.37693 L 420.011962 129.37693 L 420.011962 146.876777 C 420.011962 147.393166 420.617024 147.998227 421.378567 147.998227 L 437.636994 147.998227 C 438.518506 147.998227 439.003599 147.393166 439.003599 146.876777 L 439.003599 49.717421 C 439.003599 49.232328 438.518506 48.59597 437.636994 48.59597 Z M 437.636994 48.59597 " stroke="#ffffff" stroke-width="4.659675" stroke-opacity="1" stroke-miterlimit="4"/></g><g clip-path="url(#3799bd78b4)"><path fill="#ffffff" d="M 182.933594 21.179688 L 170.636719 21.179688 L 186.230469 5.585938 L 182.835938 2.191406 L 163.847656 21.179688 L 119.078125 21.179688 C 118.300781 21.179688 117.605469 21.644531 117.308594 22.363281 C 117.011719 23.082031 117.171875 23.898438 117.722656 24.449219 L 148.121094 54.847656 L 148.121094 89.742188 C 147.144531 89.929688 146.167969 90.160156 145.222656 90.378906 C 144.144531 90.628906 143.03125 90.886719 141.949219 91.082031 C 140.15625 91.402344 138.90625 92.746094 138.90625 94.351562 L 138.90625 95.296875 L 163.101562 95.296875 L 163.101562 94.351562 C 163.101562 92.75 161.851562 91.402344 160.0625 91.082031 C 158.984375 90.886719 157.878906 90.628906 156.808594 90.378906 C 155.851562 90.15625 154.871094 89.929688 153.886719 89.738281 L 153.886719 54.847656 L 184.285156 24.449219 C 184.835938 23.898438 185 23.078125 184.699219 22.363281 C 184.402344 21.644531 183.710938 21.179688 182.933594 21.179688 Z M 182.835938 4.867188 L 183.554688 5.585938 L 167.960938 21.179688 L 166.523438 21.179688 Z M 182.949219 23.109375 L 151.996094 54.0625 L 151.996094 91.328125 L 152.785156 91.460938 C 153.972656 91.660156 155.195312 91.945312 156.378906 92.222656 C 157.472656 92.476562 158.601562 92.742188 159.726562 92.945312 C 160.125 93.015625 160.476562 93.183594 160.734375 93.40625 L 141.277344 93.40625 C 141.535156 93.183594 141.882812 93.015625 142.28125 92.945312 C 143.414062 92.742188 144.550781 92.476562 145.648438 92.222656 C 146.828125 91.949219 148.042969 91.664062 149.222656 91.464844 L 150.011719 91.332031 L 150.011719 54.0625 L 119.050781 23.101562 C 119.050781 23.09375 119.058594 23.078125 119.078125 23.070312 L 182.945312 23.070312 C 182.949219 23.078125 182.957031 23.09375 182.949219 23.109375 Z M 182.949219 23.109375 " fill-opacity="1" fill-rule="nonzero"/></g></svg>